<mxfile host="app.diagrams.net" modified="2023-05-30T01:04:53.828Z" agent="Mozilla/5.0 (Windows NT 10.0; Win64; x64) AppleWebKit/537.36 (KHTML, like Gecko) Chrome/113.0.0.0 Safari/537.36" etag="R2kcadvljFuSOCYfcXzI" version="21.3.5" type="device">
  <diagram name="페이지-1" id="TXAw21Vn-HOKEwBjp5xd">
    <mxGraphModel dx="1434" dy="756" grid="1" gridSize="10" guides="1" tooltips="1" connect="1" arrows="1" fold="1" page="1" pageScale="1" pageWidth="4681" pageHeight="3300" math="0" shadow="0">
      <root>
        <mxCell id="0" />
        <mxCell id="1" parent="0" />
        <mxCell id="gAsIAId-F6kumP-rMcoh-8" style="rounded=0;orthogonalLoop=1;jettySize=auto;html=1;entryX=0.5;entryY=0;entryDx=0;entryDy=0;exitX=0.5;exitY=1;exitDx=0;exitDy=0;" parent="1" source="gAsIAId-F6kumP-rMcoh-1" target="gAsIAId-F6kumP-rMcoh-2" edge="1">
          <mxGeometry relative="1" as="geometry">
            <mxPoint x="355" y="550" as="sourcePoint" />
          </mxGeometry>
        </mxCell>
        <mxCell id="gAsIAId-F6kumP-rMcoh-9" style="rounded=0;orthogonalLoop=1;jettySize=auto;html=1;entryX=0.5;entryY=0;entryDx=0;entryDy=0;exitX=0.5;exitY=1;exitDx=0;exitDy=0;" parent="1" source="gAsIAId-F6kumP-rMcoh-1" target="gAsIAId-F6kumP-rMcoh-3" edge="1">
          <mxGeometry relative="1" as="geometry" />
        </mxCell>
        <mxCell id="gAsIAId-F6kumP-rMcoh-10" style="rounded=0;orthogonalLoop=1;jettySize=auto;html=1;entryX=0.407;entryY=0.042;entryDx=0;entryDy=0;entryPerimeter=0;exitX=0.5;exitY=1;exitDx=0;exitDy=0;" parent="1" source="gAsIAId-F6kumP-rMcoh-1" target="gAsIAId-F6kumP-rMcoh-4" edge="1">
          <mxGeometry relative="1" as="geometry" />
        </mxCell>
        <mxCell id="gAsIAId-F6kumP-rMcoh-11" style="rounded=0;orthogonalLoop=1;jettySize=auto;html=1;exitX=0.5;exitY=1;exitDx=0;exitDy=0;entryX=0.5;entryY=0;entryDx=0;entryDy=0;" parent="1" source="gAsIAId-F6kumP-rMcoh-1" target="gAsIAId-F6kumP-rMcoh-5" edge="1">
          <mxGeometry relative="1" as="geometry" />
        </mxCell>
        <mxCell id="gAsIAId-F6kumP-rMcoh-12" style="rounded=0;orthogonalLoop=1;jettySize=auto;html=1;exitX=0.5;exitY=1;exitDx=0;exitDy=0;entryX=0.5;entryY=0;entryDx=0;entryDy=0;" parent="1" source="gAsIAId-F6kumP-rMcoh-1" target="gAsIAId-F6kumP-rMcoh-6" edge="1">
          <mxGeometry relative="1" as="geometry" />
        </mxCell>
        <mxCell id="gAsIAId-F6kumP-rMcoh-1" value="상품정보" style="rounded=1;arcSize=10;whiteSpace=wrap;html=1;align=center;" parent="1" vertex="1">
          <mxGeometry x="200" y="450" width="110" height="40" as="geometry" />
        </mxCell>
        <mxCell id="gAsIAId-F6kumP-rMcoh-2" value="상품코드" style="ellipse;whiteSpace=wrap;html=1;align=center;fontStyle=4;" parent="1" vertex="1">
          <mxGeometry x="20" y="590" width="100" height="40" as="geometry" />
        </mxCell>
        <mxCell id="gAsIAId-F6kumP-rMcoh-3" value="상품명" style="ellipse;whiteSpace=wrap;html=1;align=center;" parent="1" vertex="1">
          <mxGeometry x="130" y="590" width="100" height="40" as="geometry" />
        </mxCell>
        <mxCell id="gAsIAId-F6kumP-rMcoh-4" value="품목" style="ellipse;whiteSpace=wrap;html=1;align=center;" parent="1" vertex="1">
          <mxGeometry x="240" y="590" width="100" height="40" as="geometry" />
        </mxCell>
        <mxCell id="gAsIAId-F6kumP-rMcoh-5" value="매입단가" style="ellipse;whiteSpace=wrap;html=1;align=center;" parent="1" vertex="1">
          <mxGeometry x="350" y="590" width="100" height="40" as="geometry" />
        </mxCell>
        <mxCell id="gAsIAId-F6kumP-rMcoh-6" value="매출단가" style="ellipse;whiteSpace=wrap;html=1;align=center;" parent="1" vertex="1">
          <mxGeometry x="460" y="590" width="100" height="40" as="geometry" />
        </mxCell>
        <mxCell id="gAsIAId-F6kumP-rMcoh-15" value="고객ID" style="ellipse;whiteSpace=wrap;html=1;align=center;fontStyle=4;" parent="1" vertex="1">
          <mxGeometry x="810" y="610" width="100" height="40" as="geometry" />
        </mxCell>
        <mxCell id="gAsIAId-F6kumP-rMcoh-16" value="SEQ" style="ellipse;whiteSpace=wrap;html=1;align=center;" parent="1" vertex="1">
          <mxGeometry x="400" y="420" width="100" height="40" as="geometry" />
        </mxCell>
        <mxCell id="gAsIAId-F6kumP-rMcoh-17" value="거래일자" style="ellipse;whiteSpace=wrap;html=1;align=center;" parent="1" vertex="1">
          <mxGeometry x="430" y="500" width="100" height="40" as="geometry" />
        </mxCell>
        <mxCell id="gAsIAId-F6kumP-rMcoh-18" value="거래시각" style="ellipse;whiteSpace=wrap;html=1;align=center;" parent="1" vertex="1">
          <mxGeometry x="540" y="480" width="100" height="40" as="geometry" />
        </mxCell>
        <mxCell id="gAsIAId-F6kumP-rMcoh-19" value="고객ID" style="ellipse;whiteSpace=wrap;html=1;align=center;" parent="1" vertex="1">
          <mxGeometry x="610" y="560" width="100" height="40" as="geometry" />
        </mxCell>
        <mxCell id="gAsIAId-F6kumP-rMcoh-20" value="상품코드" style="ellipse;whiteSpace=wrap;html=1;align=center;" parent="1" vertex="1">
          <mxGeometry x="670" y="470" width="100" height="40" as="geometry" />
        </mxCell>
        <mxCell id="gAsIAId-F6kumP-rMcoh-21" style="rounded=0;orthogonalLoop=1;jettySize=auto;html=1;entryX=0.5;entryY=0;entryDx=0;entryDy=0;exitX=0.5;exitY=1;exitDx=0;exitDy=0;" parent="1" source="bG6xPm5yPnjNGHDxtbHH-2" target="gAsIAId-F6kumP-rMcoh-15" edge="1">
          <mxGeometry relative="1" as="geometry">
            <mxPoint x="1070" y="550" as="sourcePoint" />
            <mxPoint x="725" y="370" as="targetPoint" />
          </mxGeometry>
        </mxCell>
        <mxCell id="gAsIAId-F6kumP-rMcoh-22" style="rounded=0;orthogonalLoop=1;jettySize=auto;html=1;entryX=0.5;entryY=0;entryDx=0;entryDy=0;exitX=0.5;exitY=1;exitDx=0;exitDy=0;" parent="1" source="bG6xPm5yPnjNGHDxtbHH-1" target="gAsIAId-F6kumP-rMcoh-16" edge="1">
          <mxGeometry relative="1" as="geometry">
            <mxPoint x="660" y="500" as="sourcePoint" />
            <mxPoint x="550" y="640" as="targetPoint" />
          </mxGeometry>
        </mxCell>
        <mxCell id="gAsIAId-F6kumP-rMcoh-23" style="rounded=0;orthogonalLoop=1;jettySize=auto;html=1;entryX=0.5;entryY=0;entryDx=0;entryDy=0;exitX=0.5;exitY=1;exitDx=0;exitDy=0;" parent="1" source="bG6xPm5yPnjNGHDxtbHH-1" target="gAsIAId-F6kumP-rMcoh-17" edge="1">
          <mxGeometry relative="1" as="geometry">
            <mxPoint x="660" y="500" as="sourcePoint" />
            <mxPoint x="660" y="640" as="targetPoint" />
          </mxGeometry>
        </mxCell>
        <mxCell id="gAsIAId-F6kumP-rMcoh-24" style="rounded=0;orthogonalLoop=1;jettySize=auto;html=1;entryX=0.5;entryY=0;entryDx=0;entryDy=0;exitX=0.5;exitY=1;exitDx=0;exitDy=0;" parent="1" source="bG6xPm5yPnjNGHDxtbHH-1" target="gAsIAId-F6kumP-rMcoh-18" edge="1">
          <mxGeometry relative="1" as="geometry">
            <mxPoint x="660" y="500" as="sourcePoint" />
            <mxPoint x="770" y="640" as="targetPoint" />
          </mxGeometry>
        </mxCell>
        <mxCell id="gAsIAId-F6kumP-rMcoh-25" style="rounded=0;orthogonalLoop=1;jettySize=auto;html=1;entryX=0.5;entryY=0;entryDx=0;entryDy=0;exitX=0.5;exitY=1;exitDx=0;exitDy=0;" parent="1" target="gAsIAId-F6kumP-rMcoh-19" edge="1" source="bG6xPm5yPnjNGHDxtbHH-1">
          <mxGeometry relative="1" as="geometry">
            <mxPoint x="650" y="440" as="sourcePoint" />
            <mxPoint x="880" y="640" as="targetPoint" />
          </mxGeometry>
        </mxCell>
        <mxCell id="gAsIAId-F6kumP-rMcoh-26" style="rounded=0;orthogonalLoop=1;jettySize=auto;html=1;entryX=0.5;entryY=0;entryDx=0;entryDy=0;exitX=0.5;exitY=1;exitDx=0;exitDy=0;" parent="1" source="bG6xPm5yPnjNGHDxtbHH-1" target="gAsIAId-F6kumP-rMcoh-20" edge="1">
          <mxGeometry relative="1" as="geometry">
            <mxPoint x="650" y="450" as="sourcePoint" />
            <mxPoint x="990" y="640" as="targetPoint" />
          </mxGeometry>
        </mxCell>
        <mxCell id="bOG9O_3kAjYoxlSWEpZ5-2" style="rounded=0;sketch=1;hachureGap=4;jiggle=2;curveFitting=1;orthogonalLoop=1;jettySize=auto;html=1;fontFamily=Architects Daughter;fontSource=https%3A%2F%2Ffonts.googleapis.com%2Fcss%3Ffamily%3DArchitects%2BDaughter;fontSize=16;exitX=0.5;exitY=1;exitDx=0;exitDy=0;" edge="1" parent="1" source="bG6xPm5yPnjNGHDxtbHH-1" target="bOG9O_3kAjYoxlSWEpZ5-1">
          <mxGeometry relative="1" as="geometry" />
        </mxCell>
        <mxCell id="bOG9O_3kAjYoxlSWEpZ5-4" style="rounded=0;sketch=1;hachureGap=4;jiggle=2;curveFitting=1;orthogonalLoop=1;jettySize=auto;html=1;fontFamily=Architects Daughter;fontSource=https%3A%2F%2Ffonts.googleapis.com%2Fcss%3Ffamily%3DArchitects%2BDaughter;fontSize=16;exitX=0.5;exitY=1;exitDx=0;exitDy=0;" edge="1" parent="1" source="bG6xPm5yPnjNGHDxtbHH-1" target="bOG9O_3kAjYoxlSWEpZ5-3">
          <mxGeometry relative="1" as="geometry" />
        </mxCell>
        <mxCell id="bG6xPm5yPnjNGHDxtbHH-1" value="판매내역" style="shape=rhombus;perimeter=rhombusPerimeter;whiteSpace=wrap;html=1;align=center;" parent="1" vertex="1">
          <mxGeometry x="590" y="290" width="120" height="60" as="geometry" />
        </mxCell>
        <mxCell id="bG6xPm5yPnjNGHDxtbHH-2" value="고객정보" style="rounded=1;arcSize=10;whiteSpace=wrap;html=1;align=center;" parent="1" vertex="1">
          <mxGeometry x="950" y="390" width="100" height="40" as="geometry" />
        </mxCell>
        <mxCell id="bG6xPm5yPnjNGHDxtbHH-3" value="" style="edgeStyle=entityRelationEdgeStyle;fontSize=12;html=1;endArrow=ERoneToMany;rounded=0;exitX=0.5;exitY=0;exitDx=0;exitDy=0;entryX=1;entryY=0.5;entryDx=0;entryDy=0;" parent="1" source="bG6xPm5yPnjNGHDxtbHH-2" target="bG6xPm5yPnjNGHDxtbHH-1" edge="1">
          <mxGeometry width="100" height="100" relative="1" as="geometry">
            <mxPoint x="650" y="650" as="sourcePoint" />
            <mxPoint x="750" y="550" as="targetPoint" />
          </mxGeometry>
        </mxCell>
        <mxCell id="bG6xPm5yPnjNGHDxtbHH-4" value="" style="edgeStyle=entityRelationEdgeStyle;fontSize=12;html=1;endArrow=ERoneToMany;rounded=0;exitX=0.5;exitY=0;exitDx=0;exitDy=0;entryX=0;entryY=0.5;entryDx=0;entryDy=0;" parent="1" source="gAsIAId-F6kumP-rMcoh-1" target="bG6xPm5yPnjNGHDxtbHH-1" edge="1">
          <mxGeometry width="100" height="100" relative="1" as="geometry">
            <mxPoint x="650" y="650" as="sourcePoint" />
            <mxPoint x="750" y="550" as="targetPoint" />
          </mxGeometry>
        </mxCell>
        <mxCell id="bG6xPm5yPnjNGHDxtbHH-5" value="고객이름" style="ellipse;whiteSpace=wrap;html=1;align=center;" parent="1" vertex="1">
          <mxGeometry x="920" y="610" width="100" height="40" as="geometry" />
        </mxCell>
        <mxCell id="bG6xPm5yPnjNGHDxtbHH-7" value="전화번호" style="ellipse;whiteSpace=wrap;html=1;align=center;" parent="1" vertex="1">
          <mxGeometry x="1030" y="610" width="100" height="40" as="geometry" />
        </mxCell>
        <mxCell id="bG6xPm5yPnjNGHDxtbHH-8" value="주소" style="ellipse;whiteSpace=wrap;html=1;align=center;" parent="1" vertex="1">
          <mxGeometry x="1140" y="610" width="100" height="40" as="geometry" />
        </mxCell>
        <mxCell id="bG6xPm5yPnjNGHDxtbHH-9" style="rounded=0;orthogonalLoop=1;jettySize=auto;html=1;entryX=0.5;entryY=0;entryDx=0;entryDy=0;exitX=0.5;exitY=1;exitDx=0;exitDy=0;" parent="1" source="bG6xPm5yPnjNGHDxtbHH-2" target="bG6xPm5yPnjNGHDxtbHH-5" edge="1">
          <mxGeometry relative="1" as="geometry">
            <mxPoint x="1010" y="630" as="sourcePoint" />
            <mxPoint x="890" y="690" as="targetPoint" />
          </mxGeometry>
        </mxCell>
        <mxCell id="bG6xPm5yPnjNGHDxtbHH-10" style="rounded=0;orthogonalLoop=1;jettySize=auto;html=1;entryX=0.5;entryY=0;entryDx=0;entryDy=0;exitX=0.5;exitY=1;exitDx=0;exitDy=0;" parent="1" source="bG6xPm5yPnjNGHDxtbHH-2" target="bG6xPm5yPnjNGHDxtbHH-7" edge="1">
          <mxGeometry relative="1" as="geometry">
            <mxPoint x="1000" y="620" as="sourcePoint" />
            <mxPoint x="1010" y="690" as="targetPoint" />
          </mxGeometry>
        </mxCell>
        <mxCell id="bG6xPm5yPnjNGHDxtbHH-11" style="rounded=0;orthogonalLoop=1;jettySize=auto;html=1;entryX=0.5;entryY=0;entryDx=0;entryDy=0;exitX=0.5;exitY=1;exitDx=0;exitDy=0;" parent="1" target="bG6xPm5yPnjNGHDxtbHH-8" edge="1" source="bG6xPm5yPnjNGHDxtbHH-2">
          <mxGeometry relative="1" as="geometry">
            <mxPoint x="1090" y="470" as="sourcePoint" />
            <mxPoint x="1130" y="690" as="targetPoint" />
          </mxGeometry>
        </mxCell>
        <mxCell id="bOG9O_3kAjYoxlSWEpZ5-1" value="수량" style="ellipse;whiteSpace=wrap;html=1;align=center;" vertex="1" parent="1">
          <mxGeometry x="810" y="490" width="100" height="40" as="geometry" />
        </mxCell>
        <mxCell id="bOG9O_3kAjYoxlSWEpZ5-3" value="판매단가" style="ellipse;whiteSpace=wrap;html=1;align=center;" vertex="1" parent="1">
          <mxGeometry x="780" y="390" width="100" height="40" as="geometry" />
        </mxCell>
      </root>
    </mxGraphModel>
  </diagram>
</mxfile>
